<svg xmlns="http://www.w3.org/2000/svg" width="512" height="512" viewBox="0 0 135.467 135.467">
  <g transform="matrix(.1592 0 0 .1592 26.56 20.112)">
    <path d="M359.466 500.945l5 96s-211.494-201.294-237.842-260.19c-26.349-58.897 23.248-204.588 23.248-204.588l110.044 60.446zM35.18 91.87L2.63 94.968s-17.049 37.198 35.648 40.297zM35.18 149.216l-32.549 3.1s-17.049 37.197 35.648 40.297zM35.18 211.212l-32.549 3.1s-17.049 37.197 35.648 40.297zM44.479 273.208l-32.548 3.1s-17.05 37.198 35.648 40.297z" fill="#9f616a"/>
    <path d="M19.334 106.813h2.47V39.157A39.157 39.157 0 0160.96 0h143.338a39.157 39.157 0 0139.157 39.157v371.164a39.157 39.157 0 01-39.157 39.157H60.961a39.157 39.157 0 01-39.158-39.157v-255.35h-2.47z" fill="#3f3d56"/>
    <path d="M59.38 10.187h18.71a13.893 13.893 0 0012.864 19.14h82.116a13.893 13.893 0 0012.863-19.14h17.475A29.242 29.242 0 01232.65 39.43v370.62a29.242 29.242 0 01-29.242 29.242H59.381a29.242 29.242 0 01-29.243-29.242V39.429a29.242 29.242 0 0129.243-29.242z" fill="#fff"/>
    <path d="M505.466 550.945l-173.48-197.917-6.2-127.092-65.095-108.493-18.6-46.498s-43.397 4.65-7.749 92.995l14.724 47.272a216.674 216.674 0 00-20.148 91.244v108.323c0 25.507 121.55 164.443 135.698 185.666z" fill="#9f616a"/>
    <path opacity=".2" d="M228.754 78.289l18.441 48.347 12.941-6.36-.441-.898-11.957 5.877-18.05-47.323zM2.46 95.437l.345-.939 19.17 7.062-.345.939zM2.46 153.437l.345-.939 19.17 7.062-.345.939zM2.46 215.437l.345-.939 19.17 7.062-.345.939zM12.416 277.418l.433-.902 9.333 4.48-.433.901z"/>
    <path d="M-7.204 27.004C.41-2.266 16.33-18.25 48.557-20.01" fill="none" stroke="#000" stroke-width="6.061" stroke-linecap="round"/>
    <path d="M-27.914 11.592c9.18-35.295 28.377-54.569 67.238-56.69" fill="none" stroke="#000" stroke-width="7.309" stroke-linecap="round"/>
    <path d="M222.39-23.315c29.624 6.095 46.408 21.17 49.827 53.263" fill="none" stroke="#000" stroke-width="6.061" stroke-linecap="round"/>
    <path d="M236.715-44.792c35.72 7.349 55.959 25.526 60.081 64.226" fill="none" stroke="#000" stroke-width="7.309" stroke-linecap="round"/>
    <path d="M48.86 467.599c-30.234-.76-49.419-12.629-58.46-43.613" fill="none" stroke="#000" stroke-width="6.061" stroke-linecap="round"/>
    <path d="M38.56 491.27c-36.457-.915-59.591-15.227-70.492-52.588" fill="none" stroke="#000" stroke-width="7.309" stroke-linecap="round"/>
    <rect width="111.467" height="30.653" x="74.389" y="245.092" ry="15.327" opacity=".878" fill="none" stroke="#000" stroke-width="6.924" stroke-linecap="round" stroke-linejoin="round" stroke-dashoffset="82.395" paint-order="stroke fill markers"/>
    <g transform="matrix(1.27437 0 0 1.27437 -37.339 -42.908)" fill="none" stroke="#000" stroke-width="4.646" stroke-linecap="round" stroke-linejoin="round" stroke-dashoffset="82.395" paint-order="stroke fill markers">
      <rect ry="2.708" y="226.182" x="105.882" height="22.868" width="3.693" opacity=".878"/>
      <rect ry="2.708" y="226.182" x="129.561" height="22.868" width="3.693" opacity=".878"/>
      <rect ry="2.708" y="226.182" x="153.24" height="22.868" width="3.693" opacity=".878"/>
    </g>
    <path d="M170.918 131.412c1.676.45.221 2.481-.747 2.786-2.623.826-4.716-1.936-4.825-4.279-.194-4.19 3.92-7.07 7.811-6.864 5.71.301 9.47 5.923 8.904 11.343-.754 7.225-7.93 11.888-14.876 10.943-8.739-1.188-14.314-9.94-12.982-18.407 1.614-10.255 11.952-16.748 21.94-15.022 11.77 2.034 19.183 13.964 17.06 25.472-2.45 13.286-15.976 21.622-29.003 19.1-14.802-2.865-24.062-17.99-21.14-32.536 3.278-16.319 20.004-26.502 36.069-23.18 17.835 3.69 28.944 22.018 25.218 39.602M85.183 131.412c1.676.45.221 2.481-.747 2.786-2.623.826-4.716-1.936-4.825-4.279-.194-4.19 3.92-7.07 7.81-6.864 5.71.301 9.47 5.923 8.905 11.343-.754 7.225-7.93 11.888-14.876 10.943-8.74-1.188-14.315-9.94-12.982-18.407 1.614-10.255 11.952-16.748 21.94-15.022 11.77 2.034 19.183 13.964 17.06 25.472-2.45 13.286-15.976 21.622-29.003 19.1-14.803-2.865-24.062-17.99-21.14-32.536 3.278-16.319 20.004-26.502 36.068-23.18 17.835 3.69 28.944 22.018 25.219 39.602" fill="none" stroke="#000" stroke-width="4.847"/>
  </g>
</svg>